<svg xmlns="http://www.w3.org/2000/svg" width="302.9550488599349" height="237.1200008392334" viewBox="0 0 302.9550488599349 237.1200008392334" class="css-1j8o68f"><defs id="SvgjsDefs5710"><linearGradient id="SvgjsLinearGradient5717"><stop id="SvgjsStop5718" stop-color="#00ddff" offset="0"></stop><stop id="SvgjsStop5719" stop-color="#ff00d4" offset="1"></stop></linearGradient></defs><g id="SvgjsG5711" featurekey="7KWit6-0" transform="matrix(2.1220932115149576,0,0,2.1220932115149576,45.13818938904602,-27.8021261350167)" fill="url(#SvgjsLinearGradient5717)"><g xmlns="http://www.w3.org/2000/svg" transform="translate(0,-952.36218)"><path style="text-indent:0;text-transform:none;direction:ltr;block-progression:tb;baseline-shift:baseline;color:;enable-background:accumulate;" d="m 57.779861,967.3703 c -0.322971,0.072 -0.602554,0.31512 -0.71873,0.62493 l -1.749952,4.37449 -4.312382,0 c -0.843202,-0.009 -1.278768,1.32061 -0.593734,1.81229 l 3.65615,2.59345 -1.031222,4.34325 c -0.02358,0.1235 -0.02358,0.25145 0,0.37495 -17.38529,2.13192 -35.122135,13.74855 -45.842496,28.27794 -0.315664,0.4251 -0.2133138,1.1 0.2141835,1.4124 0.4274972,0.3123 1.1016506,0.2048 1.410772,-0.225 10.5703855,-14.32626 28.3579815,-25.85834 45.2800115,-27.6218 0.711369,0.0288 1.26268,-0.88359 0.906225,-1.49983 l 3.593652,-2.68718 c 0.484879,-0.28255 0.633709,-1.01147 0.298398,-1.46145 -0.335311,-0.44999 -1.076409,-0.51588 -1.485865,-0.13212 l -1.812451,1.34359 0.562485,-2.31223 c 0.08899,-0.37675 -0.06476,-0.79953 -0.37499,-1.03113 l -1.656205,-1.18736 1.874949,0 c 0.406092,-6.6e-4 0.797854,-0.27487 0.937474,-0.65617 l 1.062471,-2.65595 1.062471,2.65595 c 0.13962,0.3813 0.531383,0.65551 0.937475,0.65617 l 4.999863,0 c 0.528298,0.007 1.014214,-0.47158 1.014214,-0.99988 0,-0.52831 -0.485916,-1.00736 -1.014214,-0.99989 l -4.312382,0 -1.749952,-4.37449 c -0.167618,-0.44763 -0.689866,-0.72991 -1.156219,-0.62493 z m 17.343276,3.99954 c -1.85883,0.0799 -3.690725,1.50324 -4.124887,3.81206 -0.02637,0.1457 -0.06056,0.4536 -0.09375,0.78116 -0.142622,-0.0859 -0.276433,-0.17428 -0.437488,-0.24998 -0.627031,-0.29469 -1.387893,-0.52537 -2.218689,-0.59368 -0.830796,-0.0683 -1.743861,0.0186 -2.56243,0.49995 -0.818569,0.48135 -1.464923,1.39013 -1.687454,2.5622 l -0.656232,3.96829 c -0.737202,-0.44548 -1.615905,-0.6937 -2.468682,-0.74992 -0.838038,-0.0552 -1.691414,0.0717 -2.437434,0.53119 -0.713051,0.43916 -1.262916,1.23033 -1.406211,2.18725 -0.0066,0.0443 -0.02641,0.0801 -0.03125,0.12498 -0.493156,1.96032 -1.225099,4.51795 -1.8437,6.9367 -0.163716,0.64013 -0.32641,1.27507 -0.468737,1.87478 -0.177267,-0.18761 -0.429559,-0.30228 -0.687481,-0.31246 l -1.624956,0 -0.406239,-1.62481 c -0.118116,-0.4928 -0.65804,-0.84299 -1.156218,-0.74992 -0.374387,0.0731 -0.692907,0.37886 -0.781229,0.74992 l -0.406239,1.62481 -1.624955,0 c -0.80444,0.004 -1.259443,1.2176 -0.656232,1.74979 l 1.312464,1.18737 -0.406239,1.37484 c -0.229958,0.77673 0.818613,1.56309 1.499959,1.12487 l 1.249966,-0.81241 1.249966,0.81241 c 0.681346,0.43822 1.729916,-0.34814 1.499959,-1.12487 l -0.406239,-1.37484 0.968723,-0.8749 c -0.19099,0.9832 -0.312491,1.85372 -0.312491,2.5622 l 0,6.99918 c 0,3.0915 1.064873,6.0888 2.093692,8.499 0.51441,1.2051 1.013266,2.2471 1.374963,3.0622 0.361697,0.8151 0.523445,1.5417 0.531235,1.3748 -6.51e-4,0.021 -6.51e-4,0.042 0,0.062 0.05991,2.9707 0.03294,4.6029 -0.03125,5.9368 -0.0227,0.5225 0.430813,1.0189 0.953259,1.0433 0.522447,0.024 1.020408,-0.4272 1.046686,-0.9496 0.06658,-1.3834 0.08946,-3.0651 0.03125,-5.9993 10e-4,-0.022 -5.39e-4,-0.041 0,-0.062 l -0.03125,0 c 0.01812,-0.8228 -0.285185,-1.3823 -0.656232,-2.2185 -0.382089,-0.8611 -0.881352,-1.8746 -1.374962,-3.0309 -0.987218,-2.313 -1.937447,-5.1009 -1.937447,-7.7178 l 0,-6.99918 c 0,-0.95293 0.473589,-3.26211 1.09372,-5.68684 0.620131,-2.42473 1.36812,-5.06558 1.874949,-7.09293 0.01309,-0.0409 0.02353,-0.0827 0.03125,-0.12498 0.051,-0.47353 0.18651,-0.66983 0.468737,-0.84365 0.282227,-0.17382 0.760943,-0.25302 1.281215,-0.21873 0.96204,0.0634 1.884502,0.6218 2.18744,1.15612 l -1.937447,11.62365 c -0.113921,0.52498 0.276083,1.10473 0.805317,1.19712 0.529235,0.0924 1.092642,-0.3209 1.163379,-0.85341 1.068739,-6.34694 2.11055,-12.71281 3.035843,-18.15634 0.14794,-0.58042 0.409828,-0.85004 0.714055,-1.02893 0.336917,-0.19813 0.825186,-0.26392 1.374962,-0.21873 0.549776,0.0452 1.12364,0.21466 1.531208,0.4062 0.203785,0.0958 0.359764,0.18814 0.437488,0.24997 0.136322,0.11125 0.314235,0.21597 0.468738,0.4687 -0.503974,2.93434 -1.070706,6.18222 -1.531209,8.78023 -0.999473,5.63583 -1.999945,11.15496 -1.999945,11.15496 -0.113921,0.52497 0.276083,1.10472 0.805317,1.19712 0.529235,0.0924 1.092642,-0.3209 1.163379,-0.85341 0,0 0.999682,-5.51468 1.999946,-11.15496 0.583693,-4.22472 1.57273,-8.38087 2.036751,-12.00945 0.381767,-1.56184 1.615888,-2.15215 2.556873,-1.98892 0.490057,0.085 0.912302,0.3412 1.218717,0.90614 0.306414,0.56495 0.479701,1.51623 0.218744,2.90591 l -3.999891,21.99745 c -0.113921,0.52498 0.276083,1.10469 0.805317,1.19709 0.529235,0.092 1.092642,-0.3209 1.163379,-0.85338 l 3.2804,-18.05593 c 0.121537,-0.12152 0.523156,-0.0892 0.75074,-0.0982 0.615596,0 1.535589,-0.0486 2.156191,0.24997 0.310301,0.14927 0.520505,0.32819 0.687481,0.68742 0.164258,0.35338 0.276805,0.94764 0.156246,1.87478 -0.989121,5.98694 -1.998729,12.00174 -2.999918,17.99794 -0.134778,0.8252 1.090568,1.4605 1.687454,0.8749 l 5.999836,-5.99933 c 0.02174,-0.0199 0.0426,-0.0408 0.0625,-0.0625 0.399339,-0.46798 0.916771,-0.64144 1.531208,-0.65617 0.614437,-0.0147 1.300001,0.18462 1.812451,0.53119 0.51245,0.34657 0.807128,0.80534 0.874976,1.21861 0.06785,0.41327 -0.361018,1.23588 -0.687482,1.56232 -2.434451,3.30578 -4.536885,6.78428 -6.437323,9.71758 -2.340433,3.6037 -4.837113,7.0426 -6.437324,8.1866 -1.745159,1.2475 -2.585459,2.3858 -2.93742,3.5308 -0.351961,1.145 -0.272984,2.0697 -0.468737,3.0622 -0.104513,0.5146 0.2675,1.0781 0.781869,1.1842 0.514369,0.1061 1.079062,-0.264 1.186827,-0.778 0.250717,-1.2713 0.190366,-2.1725 0.406239,-2.8747 0.215873,-0.7022 0.651215,-1.4014 2.18744,-2.4997 2.238382,-1.6002 4.601811,-5.0736 6.968559,-8.7177 2.213046,-3.1942 4.214145,-6.8568 6.48865,-9.8025 0.76016,-0.92049 1.105173,-1.96138 0.948647,-2.91481 -0.179158,-1.09129 -0.889655,-1.94915 -1.749952,-2.53096 -0.860298,-0.58181 -1.925155,-0.90065 -2.999918,-0.8749 -1.047842,0.0251 -2.144316,0.42657 -2.93742,1.31235 -0.02038,0.0228 -0.04254,0.0391 -0.0625,0.0625 l -3.749898,3.74957 c 0.828718,-4.98893 1.681564,-9.97935 2.499932,-14.96701 0.166586,-1.21885 0.05851,-2.23274 -0.312491,-3.0309 -0.371002,-0.79817 -0.986116,-1.31751 -1.624956,-1.62481 -1.277678,-0.61462 -2.646896,-0.4687 -3.031167,-0.4687 -0.127454,-0.003 -0.255504,0.018 -0.37499,0.0625 l 0.343741,-1.90603 c 0.32195,-1.71449 0.14383,-3.11521 -0.437488,-4.18701 -0.581318,-1.0718 -1.571715,-1.75459 -2.624928,-1.93728 -0.263304,-0.0457 -0.515682,-0.0426 -0.781229,-0.0312 z m -35.124039,25.96573 c -0.08556,0.01 -0.169818,0.031 -0.249994,0.0625 -0.830006,0.22586 -2.053238,0.56042 -3.156163,1.03113 -0.48268,0.21268 -0.728317,0.84533 -0.515611,1.32797 0.212706,0.48263 0.845409,0.72823 1.328089,0.51553 0.946061,-0.40367 2.050708,-0.75282 2.843672,-0.9686 0.466767,-0.1199 0.803992,-0.61647 0.743283,-1.09451 -0.06071,-0.47804 -0.511356,-0.87458 -0.993276,-0.87402 z m -12.030921,5.99933 c -0.190085,0.01 -0.37684,0.076 -0.531236,0.1875 -6.971603,4.7024 -13.18408,10.9217 -18.2182516,17.2167 -0.3274102,0.409 -0.2530481,1.079 0.1560739,1.4063 0.4091221,0.3273 1.0791987,0.2527 1.4063837,-0.1564 4.932643,-6.168 11.029166,-12.2566 17.780763,-16.8106 0.371619,-0.2348 0.552408,-0.7334 0.417654,-1.1518 -0.134754,-0.4184 -0.572553,-0.7179 -1.011387,-0.6917 z m 18.874483,6.0305 c -13.426073,1.909 -21.33446,7.6863 -30.530415,16.2481 -0.380874,0.3609 -0.401056,1.0346 -0.04247,1.4176 0.358591,0.383 1.032234,0.4073 1.417427,0.051 9.109405,-8.4813 16.484056,-13.9021 29.467944,-15.7482 0.549592,-0.041 0.999253,-0.6096 0.912852,-1.1539 -0.0864,-0.5443 -0.689987,-0.9455 -1.22534,-0.8146 z m -36.061513,22.9036 c -0.251619,0.026 -0.491561,0.1517 -0.656232,0.3437 -0.8614963,0.9702 -1.9805268,1.9656 -2.9061709,3.1247 -0.3274102,0.409 -0.2530481,1.079 0.1560739,1.4063 0.4091221,0.3272 1.0791983,0.2527 1.4063834,-0.1565 0.766848,-0.9603 1.8650276,-1.9288 2.8436726,-3.0309 0.571118,-0.5905 -0.02857,-1.7898 -0.843727,-1.6873 z" fill="url(#SvgjsLinearGradient5717)" fill-opacity="1" fill-rule="nonzero" stroke="none" marker="none" visibility="visible" display="inline" overflow="visible"></path></g></g><g id="SvgjsG5712" featurekey="ewgXDI-0" transform="matrix(2.7151382572845684,0,0,2.7151382572845684,0,155.80458695258065)" fill="#d8f2ff"><path d="M2.3 20 l0 -14.18 l-2.3 0.82 l0 -0.92 l2.08 -0.72 l1.32 0 l0 15 l-1.1 0 z M8.54 20.14 l-0.019941 -0.000019531 l-0.04 0 c-0.62666 0 -1.15 -0.08334 -1.57 -0.25 s-0.76 -0.40666 -1.02 -0.72 s-0.44666 -0.69 -0.56 -1.13 s-0.17 -0.93334 -0.17 -1.48 c0 -0.33334 -0.0033398 -0.63668 -0.01 -0.91002 s-0.0033204 -0.52334 0.01002 -0.75 c0 -0.33334 0.01334 -0.62334 0.04 -0.87 s0.09 -0.47666 0.19 -0.69 s0.24666 -0.42 0.44 -0.62 s0.45 -0.42666 0.77 -0.68 c-0.42666 -0.29334 -0.72666 -0.58668 -0.9 -0.88002 s-0.28668 -0.6 -0.34002 -0.92 c-0.02666 -0.16 -0.04666 -0.32 -0.06 -0.48 s-0.02 -0.32 -0.02 -0.48 s0.0033398 -0.31334 0.01 -0.46 s0.01 -0.28666 0.01 -0.42 c0.01334 -0.54666 0.06334 -1.04 0.15 -1.48 s0.24666 -0.81334 0.48 -1.12 s0.55334 -0.54 0.96 -0.7 s0.93666 -0.24 1.59 -0.24 l0.04 0 l0.02 0 c0.65334 0 1.1833 0.08 1.59 0.24 s0.72666 0.39334 0.96 0.7 s0.39334 0.68 0.48 1.12 s0.14332 0.93334 0.16998 1.48 c0.02666 0.46666 0.03332 0.87 0.01998 1.21 s-0.06334 0.64666 -0.15 0.92 s-0.22 0.53 -0.4 0.77 s-0.42334 0.49334 -0.73 0.76 c0.38666 0.29334 0.68666 0.57668 0.9 0.85002 s0.36334 0.58 0.45 0.92 s0.13 0.72666 0.13 1.16 s-0.02 0.95668 -0.06 1.57 c-0.04 0.53334 -0.11666 1.02 -0.23 1.46 s-0.29668 0.81666 -0.55002 1.13 s-0.59 0.55668 -1.01 0.73002 s-0.94334 0.26 -1.57 0.26 z M8.52 5.9 c-0.45334 0 -0.81338 0.05668 -1.08 0.17002 s-0.47332 0.27334 -0.61998 0.48 s-0.25332 0.46 -0.31998 0.76 s-0.12 0.63 -0.16 0.99 c0 0.02666 -0.0066602 0.1 -0.02 0.22 s-0.02 0.26 -0.02 0.42 c0 0.17334 0.0033398 0.36334 0.01 0.57 s0.03666 0.41 0.09 0.61 c0.12 0.50666 0.33 0.91332 0.63 1.22 s0.81 0.46 1.53 0.46 c0.36 0 0.65666 -0.04 0.89 -0.12 s0.43 -0.19 0.59 -0.33 s0.28666 -0.31334 0.38 -0.52 s0.17334 -0.44332 0.24 -0.70998 c0.04 -0.18666 0.06666 -0.37666 0.08 -0.57 s0.02 -0.37334 0.02 -0.54 s-0.01 -0.31666 -0.03 -0.45 s-0.03666 -0.22668 -0.05 -0.28002 c-0.02666 -0.37334 -0.07666 -0.71 -0.15 -1.01 s-0.18668 -0.55 -0.34002 -0.75 s-0.36334 -0.35334 -0.63 -0.46 s-0.61332 -0.16 -1.04 -0.16 z M10.8 13.98 c-0.04 -0.21334 -0.10666 -0.42 -0.2 -0.62 s-0.22668 -0.37334 -0.40002 -0.52 s-0.4 -0.26666 -0.68 -0.36 s-0.62666 -0.14 -1.04 -0.14 c-0.42666 0 -0.77666 0.05 -1.05 0.15 s-0.49334 0.22666 -0.66 0.38 s-0.29 0.32668 -0.37 0.52002 s-0.13334 0.39 -0.16 0.59 c-0.02666 0.18666 -0.04666 0.42 -0.06 0.7 s-0.02334 0.55666 -0.03 0.83 s-0.0066602 0.52 0 0.74 s0.01666 0.36334 0.03 0.43 c0.04 0.44 0.10666 0.81334 0.2 1.12 s0.22668 0.55666 0.40002 0.75 s0.4 0.33668 0.68 0.43002 s0.63334 0.14 1.06 0.14 c0.4 0 0.74 -0.04666 1.02 -0.14 s0.51 -0.23668 0.69 -0.43002 s0.32 -0.44668 0.42 -0.76002 s0.17666 -0.69 0.23 -1.13 c0 -0.02666 0.0033398 -0.14666 0.01 -0.36 s0.01 -0.45334 0.01 -0.72 s-0.0066602 -0.55 -0.02 -0.85 s-0.04 -0.55 -0.08 -0.75 z M20.64 20 l-1.1 -4.42 l-4.88 0 l-1.1 4.42 l-1 0 l4.14 -15 l0.86 0 l4.12 15 l-1.04 0 z M17.16 5.9399999999999995 l-2.26 8.68 l4.38 0 z M33.42 20 l-5.8 -12.88 l0 12.88 l-1.1 0 l0 -15 l1.18 0 l5.8 12.3 l0.14 -12.3 l1.08 0 l0 15 l-1.3 0 z M36.379999999999995 20 l0 -15 l7.36 0 l0 1.16 l-6.32 0 l0 5.7 l6.26 0 l0 0.92 l-6.26 0 l0 6.06 l6.46 0 l0 1.16 l-7.5 0 z M49.26 20 l-0.86 0 l-4.14 -15 l1.06 0 l3.5 13.26 l3.58 -13.26 l1.02 0 z M54.22 20 l0 -15 l7.36 0 l0 1.16 l-6.32 0 l0 5.7 l6.26 0 l0 0.92 l-6.26 0 l0 6.06 l6.46 0 l0 1.16 l-7.5 0 z M70.16 20 l-3.3 -6.22 l-3.06 0 l0 6.22 l-0.98 0 l0 -15 l3.4 0 c0.78666 0 1.46 0.11666 2.02 0.35 s1.02 0.55 1.38 0.95 s0.62666 0.86334 0.8 1.39 s0.26 1.0767 0.26 1.65 c0 0.97334 -0.25 1.85 -0.75 2.63 s-1.1567 1.35 -1.97 1.71 l3.52 6.32 l-1.32 0 z M66.08 5.92 l-2.28 -0.000019531 l0 6.84 l2.42 0 c0.68 0 1.24 -0.10334 1.68 -0.31 s0.78334 -0.47332 1.03 -0.79998 s0.42 -0.7 0.52 -1.12 s0.15 -0.85 0.15 -1.29 c0 -0.46666 -0.08 -0.9 -0.24 -1.3 s-0.39 -0.75 -0.69 -1.05 s-0.66666 -0.53666 -1.1 -0.71 s-0.93 -0.26 -1.49 -0.26 z M75.96000000000001 20 l0 -15 l7.36 0 l0 1.16 l-6.32 0 l0 5.7 l6.26 0 l0 0.92 l-6.26 0 l0 6.06 l6.46 0 l0 1.16 l-7.5 0 z M91.56000000000002 20 l-5.8 -12.88 l0 12.88 l-1.1 0 l0 -15 l1.18 0 l5.8 12.3 l0.14 -12.3 l1.08 0 l0 15 l-1.3 0 z M101.74000000000001 16.96 c-0.09334 0.41334 -0.23 0.80334 -0.41 1.17 s-0.41666 0.69 -0.71 0.97 s-0.65 0.5 -1.07 0.66 s-0.91 0.24 -1.47 0.24 l-3.64 0 l0 -15 l3.5 0 c1.0133 0 1.8633 0.23666 2.55 0.71 s1.13 1.27 1.33 2.39 c0.04 0.21334 0.07334 0.54334 0.1 0.99 s0.04666 0.96 0.06 1.54 s0.02 1.19 0.02 1.83 s-0.01 1.2533 -0.03 1.84 s-0.05 1.1167 -0.09 1.59 s-0.08666 0.83 -0.14 1.07 z M97.76 6.02 l-2.32 0.000019531 l0 12.9 l2.6 0 c0.36 0 0.68 -0.06334 0.96 -0.19 s0.53 -0.29332 0.75 -0.49998 s0.40334 -0.43666 0.55 -0.69 s0.26666 -0.5 0.36 -0.74 c0.06666 -0.17334 0.12332 -0.48668 0.16998 -0.94002 s0.08 -0.97 0.1 -1.55 s0.03 -1.1967 0.03 -1.85 s-0.01 -1.2667 -0.03 -1.84 s-0.05 -1.08 -0.09 -1.52 s-0.08666 -0.74666 -0.14 -0.92 c-0.08 -0.24 -0.18666 -0.49 -0.32 -0.75 s-0.31 -0.49334 -0.53 -0.7 s-0.5 -0.37666 -0.84 -0.51 s-0.75666 -0.2 -1.25 -0.2 z M107.76 20.18 c-0.65334 0 -1.2335 -0.086738 -1.7401 -0.26008 s-0.93332 -0.45 -1.28 -0.83 s-0.60332 -0.87666 -0.76998 -1.49 s-0.23666 -1.3533 -0.21 -2.22 l1.2 0 c0 0.42666 0.02 0.87 0.06 1.33 s0.14666 0.88 0.32 1.26 s0.43668 0.69 0.79002 0.93 s0.84334 0.36 1.47 0.36 c0.53334 0 0.98668 -0.08 1.36 -0.24 s0.67668 -0.37334 0.91002 -0.64 s0.39668 -0.58 0.49002 -0.94 s0.14 -0.73334 0.14 -1.12 c0 -0.45334 -0.08334 -0.85 -0.25 -1.19 s-0.38666 -0.64334 -0.66 -0.91 s-0.59334 -0.50332 -0.96 -0.70998 s-0.75 -0.39 -1.15 -0.55 c-0.64 -0.25334 -1.2 -0.50334 -1.68 -0.75 s-0.87334 -0.52332 -1.18 -0.82998 s-0.53666 -0.66332 -0.69 -1.07 s-0.23 -0.90332 -0.23 -1.49 c0 -1.3333 0.35 -2.3266 1.05 -2.98 s1.7033 -0.98 3.01 -0.98 c1.1333 0 2.03 0.33 2.69 0.99 s0.99 1.65 0.99 2.97 l0 1.1 l-1.12 0 l0 -1.2 c0 -0.41334 -0.05 -0.79668 -0.15 -1.15 s-0.25666 -0.66334 -0.47 -0.93 s-0.48334 -0.47666 -0.81 -0.63 s-0.71666 -0.23 -1.17 -0.23 c-1.0667 0 -1.83 0.28 -2.29 0.84 s-0.67 1.3133 -0.63 2.26 c0.01334 0.41334 0.09 0.76668 0.23 1.06 s0.32666 0.55 0.56 0.77 s0.51334 0.41666 0.84 0.59 s0.69 0.34668 1.09 0.52002 c0.46666 0.2 0.93 0.41334 1.39 0.64 s0.89 0.50666 1.29 0.84 c0.4 0.34666 0.73 0.75 0.99 1.21 s0.39 1.03 0.39 1.71 c0 1.32 -0.33666 2.31 -1.01 2.97 s-1.61 0.99 -2.81 0.99 z"></path></g><g id="SvgjsG5713" featurekey="sloganFeature-0" transform="matrix(1,0,0,1,11.579999476671219,216.9200005531311)" fill="#d8f2ff"><path d="M6 6.800000000000001 l2.3 0 c0.1 0 0.18 0.08 0.18 0.18 l0 9.58 c0 1.94 -1.56 3.62 -3.6 3.62 l-0.5 0 c-0.84 0 -1.66 -0.32 -2.38 -0.9 c-0.6 -0.56 -1.18 -1.3 -1.56 -2.12 c-0.04 -0.1 -0.02 -0.18 0.06 -0.24 l2.1 -1.46 c0.08 -0.06 0.2 -0.06 0.24 0.06 c0.28 0.8 0.76 1.98 1.8 1.98 c1 0 1.18 -1.38 1.18 -2.22 l0 -8.3 c0 -0.1 0.08 -0.18 0.18 -0.18 z M2.28 17.2 c-0.08 -0.12 -0.3 0 -0.2 0.16 c0.5 0.84 1.06 1.6 2.52 1.6 c1.68 0 2.68 -1.3 2.68 -3.46 l0 -7.5 c0 -0.12 -0.26 -0.14 -0.26 0 l0 7.5 c0 0.98 -0.2 1.8 -0.62 2.36 c-0.42 0.54 -1.02 0.84 -1.8 0.84 c-1.32 0 -1.82 -0.68 -2.32 -1.5 z M12.219999999999999 20 c-0.1 0 -0.16 -0.08 -0.16 -0.18 l0 -12.84 c0 -0.1 0.06 -0.18 0.16 -0.18 l6.8 0 c0.1 0 0.18 0.08 0.18 0.18 l0 2.14 c0 0.1 -0.08 0.18 -0.18 0.18 l-4.32 0 l0 2.72 l3.36 0 c0.1 0 0.16 0.08 0.16 0.18 l0 2.18 c0 0.1 -0.06 0.18 -0.16 0.18 l-3.36 0 l0 2.94 l4.32 0 c0.1 0 0.18 0.08 0.18 0.18 l0 2.14 c0 0.1 -0.08 0.18 -0.18 0.18 l-6.8 0 z M13.219999999999999 8.06 l0 10.64 c0 0.12 0.08 0.16 0.16 0.16 l4.6 0 c0.18 0 0.14 -0.24 0 -0.24 l-4.5 0 l0 -5.22 l3.68 0 c0.12 0 0.12 -0.28 0 -0.28 l-3.68 0 l0 -4.96 l4.5 0 c0.14 0 0.18 -0.26 0 -0.26 l-4.6 0 c-0.08 0 -0.16 0.06 -0.16 0.16 z M30.08 14.780000000000001 c-0.28 0.58 -0.68 1.02 -1.24 1.28 l1.68 3.7 c0.06 0.12 -0.02 0.24 -0.14 0.24 l-2.46 0 c-0.08 0 -0.12 -0.04 -0.14 -0.1 l-1.56 -3.4 l-1.02 0 l0 3.32 c0 0.1 -0.08 0.18 -0.18 0.18 l-2.3 0 c-0.08 0 -0.14 -0.08 -0.14 -0.18 l0 -12.84 c0 -0.1 0.06 -0.18 0.14 -0.18 l4.16 0 c2.22 0 3.56 1.26 3.56 3.6 l0 2.52 c0 0.7 -0.12 1.36 -0.36 1.86 z M27.82 12.3 l0 -1.3 c0 -1.4 -0.52 -1.54 -2.04 -1.54 l-0.58 0 l0 4.42 l0.58 0 c1.26 0 2 -0.02 2.04 -1.58 z M24.04 18.78 l0 -3.42 l2.88 0 l1.68 3.46 c0.04 0.1 0.28 0.06 0.22 -0.12 l-1.68 -3.4 c1.56 -0.22 2.1 -1.04 2.1 -2.52 l0 -2.5 c0 -2.2 -2 -2.38 -2.62 -2.38 l-2.7 0 c-0.04 0 -0.12 0.06 -0.12 0.12 l0 10.76 c0 0.14 0.24 0.14 0.24 0 z M29 10.28 l0 2.5 c0 2.04 -1.3 2.32 -2.56 2.32 l-2.4 0 l0 -6.94 l2.58 0 c2.16 0 2.38 1.46 2.38 2.12 z M34.14 20 c-0.1 0 -0.16 -0.08 -0.16 -0.18 l0 -12.84 c0 -0.1 0.06 -0.18 0.16 -0.18 l6.8 0 c0.1 0 0.18 0.08 0.18 0.18 l0 2.14 c0 0.1 -0.08 0.18 -0.18 0.18 l-4.32 0 l0 2.72 l3.36 0 c0.1 0 0.16 0.08 0.16 0.18 l0 2.18 c0 0.1 -0.06 0.18 -0.16 0.18 l-3.36 0 l0 2.94 l4.32 0 c0.1 0 0.18 0.08 0.18 0.18 l0 2.14 c0 0.1 -0.08 0.18 -0.18 0.18 l-6.8 0 z M35.14 8.06 l0 10.64 c0 0.12 0.08 0.16 0.16 0.16 l4.6 0 c0.18 0 0.14 -0.24 0 -0.24 l-4.5 0 l0 -5.22 l3.68 0 c0.12 0 0.12 -0.28 0 -0.28 l-3.68 0 l0 -4.96 l4.5 0 c0.14 0 0.18 -0.26 0 -0.26 l-4.6 0 c-0.08 0 -0.16 0.06 -0.16 0.16 z M55.940000000000005 6.800000000000001 c0.1 0 0.18 0.08 0.18 0.18 l0 12.84 c0 0.1 -0.08 0.18 -0.18 0.18 l-2.18 0 c-0.06 0 -0.16 -0.08 -0.16 -0.18 l0 -7.4 l-2.2 7.46 c-0.04 0.08 -0.08 0.12 -0.16 0.12 l-1.58 0 c-0.06 0 -0.14 -0.04 -0.16 -0.12 l-2.06 -7.6 l0 7.54 c0 0.1 -0.08 0.18 -0.18 0.18 l-2.22 0 c-0.08 0 -0.14 -0.08 -0.14 -0.18 l0 -12.84 c0 -0.1 0.06 -0.18 0.14 -0.18 l2.8 0 c0.08 0 0.16 0.06 0.18 0.12 l2.42 8.1 l2.66 -8.1 c0 -0.06 0.06 -0.12 0.14 -0.12 l2.7 0 z M54.7 18.78 c0 0.14 0.26 0.18 0.26 0 l0 -10.78 c0 -0.04 -0.06 -0.1 -0.12 -0.1 l-0.94 0 c-0.08 0 -0.1 0.06 -0.14 0.1 l-3.32 9.9 l-3.3 -9.92 c0 -0.06 -0.04 -0.08 -0.1 -0.08 l-0.98 0 c-0.06 0 -0.12 0.06 -0.12 0.12 l0 10.76 c0 0.14 0.26 0.18 0.26 0 l0 -10.62 l0.74 0 l3.38 10.16 c0.08 0.14 0.14 0.1 0.24 0 l3.4 -10.16 l0.74 0 l0 10.62 z M60.98000000000001 6.9 l1.74 3.36 l1.7 -3.36 c0.06 -0.1 0.08 -0.1 0.16 -0.1 l2.24 0 c0.12 0 0.2 0.12 0.16 0.22 l-2.9 6.74 l0 6.06 c0 0.1 -0.08 0.18 -0.18 0.18 l-2.36 0 c-0.06 0 -0.14 -0.08 -0.14 -0.18 l0 -6.06 l-2.98 -6.7 c-0.04 -0.14 0.02 -0.26 0.16 -0.26 l2.24 0 c0.08 0 0.1 0 0.16 0.1 z M62.82000000000001 13.3 l2.5 -5.2 c0.06 -0.12 -0.14 -0.22 -0.22 -0.08 l-2.38 4.98 l-2.44 -4.98 c-0.08 -0.14 -0.3 -0.04 -0.24 0.1 l2.56 5.18 l0 5.52 c0 0.14 0.22 0.16 0.22 0 l0 -5.52 z M81.68 11.9 c1.52 0.72 3.5 1.86 3.5 3.92 c0 0.6 -0.1 1.76 -0.76 2.74 c-0.74 1.1 -1.9 1.64 -3.5 1.64 c-1.7 0 -3.68 -0.82 -4.3 -2.68 c-0.02 -0.06 0 -0.12 0.06 -0.16 l1.84 -1.58 c0.08 -0.06 0.2 -0.06 0.26 0.04 c0.04 0.1 0.12 0.26 0.22 0.46 c0.3 0.62 1.02 1.24 1.82 1.24 c0.62 0 1.46 -0.34 1.46 -1.3 c0 -0.92 -1.26 -1.44 -2.04 -1.74 c-0.9 -0.36 -1.82 -0.82 -2.6 -1.5 c-0.82 -0.76 -1.22 -1.6 -1.22 -2.6 c0 -2.5 2.3 -3.76 4.48 -3.76 c1.72 0 3 0.9 3.84 2.68 c0.04 0.08 0 0.18 -0.06 0.22 l-1.78 1.24 c-0.08 0.04 -0.12 0.04 -0.2 -0.06 c-0.68 -0.98 -1.28 -1.44 -2.08 -1.44 c-0.42 0 -1.4 0.16 -1.4 0.9 c0 0.9 1.66 1.36 2.46 1.74 z M78.04 17.42 c0.5 1 1.88 1.58 3 1.58 c1.46 0 2.64 -1 2.8 -2.52 c0.2 -1.86 -1.26 -2.66 -2.7 -3.38 l-0.64 -0.28 c-1.48 -0.66 -2.56 -1.16 -2.56 -2.54 c0 -1.52 1.4 -2.22 2.78 -2.22 c1.26 0 1.92 0.74 2.26 1.2 c0.12 0.16 0.32 0.02 0.2 -0.14 c-0.34 -0.42 -1.06 -1.3 -2.46 -1.3 c-1.58 0 -3.02 0.78 -3.02 2.46 c0 1.5 1.2 2.08 2.72 2.78 l0.62 0.3 c1.98 0.94 2.7 1.82 2.54 3.1 c-0.3 2.04 -1.86 2.3 -2.54 2.3 c-1.5 0 -2.5 -0.9 -2.8 -1.46 c-0.1 -0.1 -0.24 0 -0.2 0.12 z M90.68 6.92 c0.02 -0.06 0.06 -0.12 0.14 -0.12 l2.48 0 c0.08 0 0.12 0.06 0.14 0.12 l3.46 12.86 c0.02 0.12 -0.06 0.22 -0.18 0.22 l-2.28 0 c-0.06 0 -0.12 -0.04 -0.14 -0.12 l-0.78 -2.8 l-2.92 0 l-0.76 2.8 c-0.02 0.08 -0.06 0.12 -0.14 0.12 l-2.3 0 c-0.12 0 -0.2 -0.1 -0.18 -0.22 z M91.24000000000001 14.6 l1.66 0 l-0.86 -3.02 z M94.32000000000001 15.780000000000001 l0.92 3 c0.04 0.12 0.26 0.1 0.2 -0.06 l-3.2 -10.64 c-0.06 -0.26 -0.4 -0.28 -0.46 0 l-3.1 10.64 c-0.06 0.14 0.16 0.2 0.22 0.08 l0.88 -3.02 l4.54 0 z M89.84000000000002 15.52 l2.18 -7.36 l2.22 7.36 l-4.4 0 z M99.86000000000001 20 c-0.1 0 -0.16 -0.08 -0.16 -0.18 l0 -12.84 c0 -0.1 0.06 -0.18 0.16 -0.18 l2.28 0 c0.1 0 0.18 0.08 0.18 0.18 l0 12.84 c0 0.1 -0.08 0.18 -0.18 0.18 l-2.28 0 z M100.9 8 l0 10.78 c0 0.18 0.22 0.18 0.22 0 l0 -10.78 c0 -0.14 -0.22 -0.14 -0.22 0 z M111.16000000000001 6.800000000000001 c1.36 0 2.38 0.38 3.06 1.12 c0.6 0.66 0.9 1.64 0.9 2.84 l0 5.3 c0 2.42 -1.4 3.94 -3.96 3.94 l-5 0 c-0.1 0 -0.16 -0.08 -0.16 -0.18 l0 -12.84 c0 -0.1 0.06 -0.18 0.16 -0.18 l5 0 z M112.5 15.46 l0 -4.1 c0 -1.26 -0.66 -2.06 -2.06 -2.06 l-1.8 0 l0 8.2 l1.8 0 c1.2 0 2.06 -0.78 2.06 -2.04 z M107.22 8.02 l0 10.76 c0 0.08 0.08 0.1 0.12 0.1 l3.26 0 c2.3 0 3.34 -1.38 3.34 -2.66 l0 -5.12 c0 -2.12 -1.12 -3.2 -3.4 -3.2 l-3.2 0 c-0.04 0 -0.12 0.02 -0.12 0.12 z M113.7 11.1 l0 5.12 c0 1.6 -1.6 2.44 -3.1 2.44 l-3.14 0 l0 -10.5 l3.08 0 c2.1 0 3.16 0.94 3.16 2.94 z M126.26000000000002 20 c-0.1 0 -0.16 -0.08 -0.16 -0.18 l0 -12.84 c0 -0.1 0.06 -0.18 0.16 -0.18 l2.28 0 c0.1 0 0.18 0.08 0.18 0.18 l0 12.84 c0 0.1 -0.08 0.18 -0.18 0.18 l-2.28 0 z M127.30000000000001 8 l0 10.78 c0 0.18 0.22 0.18 0.22 0 l0 -10.78 c0 -0.14 -0.22 -0.14 -0.22 0 z M134.46 9.3 l-2.84 0 c-0.1 0 -0.18 -0.08 -0.18 -0.18 l0 -2.14 c0 -0.1 0.08 -0.18 0.18 -0.18 l8.34 0 c0.1 0 0.18 0.08 0.18 0.18 l0 2.14 c0 0.1 -0.08 0.18 -0.18 0.18 l-2.84 0 l0 10.52 c0 0.1 -0.08 0.18 -0.18 0.18 l-2.3 0 c-0.1 0 -0.18 -0.08 -0.18 -0.18 l0 -10.52 z M138.74 7.9 l-6.04 0 c-0.14 0 -0.14 0.26 0 0.26 l2.96 0 l0 10.6 c0 0.14 0.26 0.14 0.26 0 l0 -10.6 l2.82 0 c0.2 0 0.18 -0.26 0 -0.26 z M143.04 6.08 l1.16 0 c0.1 0 0.2 0.08 0.18 0.24 l-0.24 1.7 c-0.04 0.14 -0.06 0.18 -0.16 0.18 l-0.72 0 c-0.1 0 -0.16 -0.04 -0.18 -0.18 l-0.24 -1.72 c-0.04 -0.12 0.06 -0.22 0.2 -0.22 z M143.74 7.5 l0 -0.84 c0 -0.18 -0.24 -0.2 -0.24 0 l0 0.84 c0 0.18 0.24 0.2 0.24 0 z M151.98 11.9 c1.52 0.72 3.5 1.86 3.5 3.92 c0 0.6 -0.1 1.76 -0.76 2.74 c-0.74 1.1 -1.9 1.64 -3.5 1.64 c-1.7 0 -3.68 -0.82 -4.3 -2.68 c-0.02 -0.06 0 -0.12 0.06 -0.16 l1.84 -1.58 c0.08 -0.06 0.2 -0.06 0.26 0.04 c0.04 0.1 0.12 0.26 0.22 0.46 c0.3 0.62 1.02 1.24 1.82 1.24 c0.62 0 1.46 -0.34 1.46 -1.3 c0 -0.92 -1.26 -1.44 -2.04 -1.74 c-0.9 -0.36 -1.82 -0.82 -2.6 -1.5 c-0.82 -0.76 -1.22 -1.6 -1.22 -2.6 c0 -2.5 2.3 -3.76 4.48 -3.76 c1.72 0 3 0.9 3.84 2.68 c0.04 0.08 0 0.18 -0.06 0.22 l-1.78 1.24 c-0.08 0.04 -0.12 0.04 -0.2 -0.06 c-0.68 -0.98 -1.28 -1.44 -2.08 -1.44 c-0.42 0 -1.4 0.16 -1.4 0.9 c0 0.9 1.66 1.36 2.46 1.74 z M148.34 17.42 c0.5 1 1.88 1.58 3 1.58 c1.46 0 2.64 -1 2.8 -2.52 c0.2 -1.86 -1.26 -2.66 -2.7 -3.38 l-0.64 -0.28 c-1.48 -0.66 -2.56 -1.16 -2.56 -2.54 c0 -1.52 1.4 -2.22 2.78 -2.22 c1.26 0 1.92 0.74 2.26 1.2 c0.12 0.16 0.32 0.02 0.2 -0.14 c-0.34 -0.42 -1.06 -1.3 -2.46 -1.3 c-1.58 0 -3.02 0.78 -3.02 2.46 c0 1.5 1.2 2.08 2.72 2.78 l0.62 0.3 c1.98 0.94 2.7 1.82 2.54 3.1 c-0.3 2.04 -1.86 2.3 -2.54 2.3 c-1.5 0 -2.5 -0.9 -2.8 -1.46 c-0.1 -0.1 -0.24 0 -0.2 0.12 z M168.45999999999998 6.92 c0.02 -0.06 0.06 -0.12 0.14 -0.12 l2.48 0 c0.08 0 0.12 0.06 0.14 0.12 l3.46 12.86 c0.02 0.12 -0.06 0.22 -0.18 0.22 l-2.28 0 c-0.06 0 -0.12 -0.04 -0.14 -0.12 l-0.78 -2.8 l-2.92 0 l-0.76 2.8 c-0.02 0.08 -0.06 0.12 -0.14 0.12 l-2.3 0 c-0.12 0 -0.2 -0.1 -0.18 -0.22 z M169.01999999999998 14.6 l1.66 0 l-0.86 -3.02 z M172.1 15.780000000000001 l0.92 3 c0.04 0.12 0.26 0.1 0.2 -0.06 l-3.2 -10.64 c-0.06 -0.26 -0.4 -0.28 -0.46 0 l-3.1 10.64 c-0.06 0.14 0.16 0.2 0.22 0.08 l0.88 -3.02 l4.54 0 z M167.61999999999998 15.52 l2.18 -7.36 l2.22 7.36 l-4.4 0 z M189.1 15.2 c-0.1 0 -0.18 -0.08 -0.18 -0.18 l0 -2.14 c0 -0.1 0.08 -0.18 0.18 -0.18 l4.58 0 c0.1 0 0.18 0.08 0.18 0.18 l0 3.14 c0 2.94 -1.58 4.18 -4.56 4.18 c-2.78 0 -4.6 -1.1 -4.6 -4.18 l0 -5.26 c0 -2.9 1.62 -4.14 4.6 -4.14 c2.8 0 4.56 1.08 4.56 4.14 l0 0.42 c0 0.1 -0.08 0.18 -0.18 0.18 l-2.3 0 c-0.1 0 -0.18 -0.08 -0.18 -0.18 l0 -0.26 c0 -1.22 -0.78 -1.62 -1.8 -1.62 l-0.24 0 c-0.66 0 -1.1 0.18 -1.4 0.58 c-0.28 0.38 -0.38 0.88 -0.38 1.54 l0 3.96 c0 1.74 0.94 2.12 1.78 2.12 l0.24 0 c1.22 0 1.8 -0.84 1.8 -2.12 l0 -0.18 l-2.1 0 z M185.92 15.879999999999999 c0 2.22 1.08 3.04 3.36 3.04 c2.4 0 3.38 -1 3.38 -3.46 l0 -1.5 c0 -0.06 -0.04 -0.14 -0.08 -0.14 l-2.78 0 c-0.18 0 -0.14 0.26 0 0.26 l2.62 0 l0 1.38 c0 2.14 -0.82 3.24 -3.14 3.24 c-1.92 0 -3.12 -0.68 -3.12 -2.82 l0 -4.82 c0 -2.06 0.94 -2.98 3.12 -2.98 c1.62 0 3.1 0.9 2.98 2.28 c0 0.16 0.22 0.2 0.26 0.02 c0 -1.76 -1.6 -2.52 -3.24 -2.52 c-2 0 -3.36 0.72 -3.36 3.2 l0 4.82 z M201.6 6.619999999999999 c1.72 0 2.92 0.38 3.68 1.2 c0.6 0.66 0.88 1.6 0.88 2.94 l0 5.26 c0 1.38 -0.28 2.34 -0.88 2.98 c-0.78 0.8 -1.96 1.2 -3.68 1.2 c-1.78 0 -2.94 -0.4 -3.7 -1.2 c-0.58 -0.64 -0.9 -1.6 -0.9 -2.98 l0 -5.26 c0 -1.34 0.32 -2.28 0.9 -2.96 c0.78 -0.8 1.96 -1.18 3.7 -1.18 z M203.5 15.42 l0 -4 c0 -1.76 -0.94 -2.12 -1.8 -2.12 l-0.24 0 c-1.28 0 -1.78 0.82 -1.78 2.12 l0 4 c0 1.76 0.94 2.14 1.78 2.14 l0.24 0 c1.28 0 1.78 -0.86 1.8 -2.14 z M198.26 10.9 l0 4.96 c0 0.94 0.24 1.72 0.8 2.3 c0.52 0.52 1.32 0.8 2.3 0.8 l0.52 0 c1.88 0 3.1 -1.2 3.1 -3.1 l0 -4.96 c0 -2.04 -1.08 -3.14 -3.1 -3.14 l-0.52 0 c-2.04 0 -3.1 1.1 -3.1 3.14 z M201.88 18.7 l-0.52 0 c-0.94 0 -1.64 -0.24 -2.14 -0.74 s-0.76 -1.2 -0.76 -2.1 l0 -4.96 c0 -1.9 1.02 -2.9 2.9 -2.9 l0.52 0 c1.9 0 2.84 0.98 2.84 2.9 l0 4.96 c0 0.84 -0.26 1.6 -0.8 2.12 c-0.52 0.44 -1.22 0.72 -2.04 0.72 z M214 6.619999999999999 c1.72 0 2.92 0.38 3.68 1.2 c0.6 0.66 0.88 1.6 0.88 2.94 l0 5.26 c0 1.38 -0.28 2.34 -0.88 2.98 c-0.78 0.8 -1.96 1.2 -3.68 1.2 c-1.78 0 -2.94 -0.4 -3.7 -1.2 c-0.58 -0.64 -0.9 -1.6 -0.9 -2.98 l0 -5.26 c0 -1.34 0.32 -2.28 0.9 -2.96 c0.78 -0.8 1.96 -1.18 3.7 -1.18 z M215.9 15.42 l0 -4 c0 -1.76 -0.94 -2.12 -1.8 -2.12 l-0.24 0 c-1.28 0 -1.78 0.82 -1.78 2.12 l0 4 c0 1.76 0.94 2.14 1.78 2.14 l0.24 0 c1.28 0 1.78 -0.86 1.8 -2.14 z M210.66 10.9 l0 4.96 c0 0.94 0.24 1.72 0.8 2.3 c0.52 0.52 1.32 0.8 2.3 0.8 l0.52 0 c1.88 0 3.1 -1.2 3.1 -3.1 l0 -4.96 c0 -2.04 -1.08 -3.14 -3.1 -3.14 l-0.52 0 c-2.04 0 -3.1 1.1 -3.1 3.14 z M214.28 18.7 l-0.52 0 c-0.94 0 -1.64 -0.24 -2.14 -0.74 s-0.76 -1.2 -0.76 -2.1 l0 -4.96 c0 -1.9 1.02 -2.9 2.9 -2.9 l0.52 0 c1.9 0 2.84 0.98 2.84 2.9 l0 4.96 c0 0.84 -0.26 1.6 -0.8 2.12 c-0.52 0.44 -1.22 0.72 -2.04 0.72 z M227.22 6.800000000000001 c1.36 0 2.38 0.38 3.06 1.12 c0.6 0.66 0.9 1.64 0.9 2.84 l0 5.3 c0 2.42 -1.4 3.94 -3.96 3.94 l-5 0 c-0.1 0 -0.16 -0.08 -0.16 -0.18 l0 -12.84 c0 -0.1 0.06 -0.18 0.16 -0.18 l5 0 z M228.56 15.46 l0 -4.1 c0 -1.26 -0.66 -2.06 -2.06 -2.06 l-1.8 0 l0 8.2 l1.8 0 c1.2 0 2.06 -0.78 2.06 -2.04 z M223.28 8.02 l0 10.76 c0 0.08 0.08 0.1 0.12 0.1 l3.26 0 c2.3 0 3.34 -1.38 3.34 -2.66 l0 -5.12 c0 -2.12 -1.12 -3.2 -3.4 -3.2 l-3.2 0 c-0.04 0 -0.12 0.02 -0.12 0.12 z M229.76000000000002 11.1 l0 5.12 c0 1.6 -1.6 2.44 -3.1 2.44 l-3.14 0 l0 -10.5 l3.08 0 c2.1 0 3.16 0.94 3.16 2.94 z M242.32 20 c-0.1 0 -0.16 -0.08 -0.16 -0.18 l0 -12.84 c0 -0.1 0.06 -0.18 0.16 -0.18 l2.28 0 c0.1 0 0.18 0.08 0.18 0.18 l0 12.84 c0 0.1 -0.08 0.18 -0.18 0.18 l-2.28 0 z M243.36 8 l0 10.78 c0 0.18 0.22 0.18 0.22 0 l0 -10.78 c0 -0.14 -0.22 -0.14 -0.22 0 z M253.62 6.800000000000001 c1.36 0 2.38 0.38 3.06 1.12 c0.6 0.66 0.9 1.64 0.9 2.84 l0 5.3 c0 2.42 -1.4 3.94 -3.96 3.94 l-5 0 c-0.1 0 -0.16 -0.08 -0.16 -0.18 l0 -12.84 c0 -0.1 0.06 -0.18 0.16 -0.18 l5 0 z M254.96 15.46 l0 -4.1 c0 -1.26 -0.66 -2.06 -2.06 -2.06 l-1.8 0 l0 8.2 l1.8 0 c1.2 0 2.06 -0.78 2.06 -2.04 z M249.68 8.02 l0 10.76 c0 0.08 0.08 0.1 0.12 0.1 l3.26 0 c2.3 0 3.34 -1.38 3.34 -2.66 l0 -5.12 c0 -2.12 -1.12 -3.2 -3.4 -3.2 l-3.2 0 c-0.04 0 -0.12 0.02 -0.12 0.12 z M256.16 11.1 l0 5.12 c0 1.6 -1.6 2.44 -3.1 2.44 l-3.14 0 l0 -10.5 l3.08 0 c2.1 0 3.16 0.94 3.16 2.94 z M261.24 20 c-0.1 0 -0.16 -0.08 -0.16 -0.18 l0 -12.84 c0 -0.1 0.06 -0.18 0.16 -0.18 l6.8 0 c0.1 0 0.18 0.08 0.18 0.18 l0 2.14 c0 0.1 -0.08 0.18 -0.18 0.18 l-4.32 0 l0 2.72 l3.36 0 c0.1 0 0.16 0.08 0.16 0.18 l0 2.18 c0 0.1 -0.06 0.18 -0.16 0.18 l-3.36 0 l0 2.94 l4.32 0 c0.1 0 0.18 0.08 0.18 0.18 l0 2.14 c0 0.1 -0.08 0.18 -0.18 0.18 l-6.8 0 z M262.24 8.06 l0 10.64 c0 0.12 0.08 0.16 0.16 0.16 l4.6 0 c0.18 0 0.14 -0.24 0 -0.24 l-4.5 0 l0 -5.22 l3.68 0 c0.12 0 0.12 -0.28 0 -0.28 l-3.68 0 l0 -4.96 l4.5 0 c0.14 0 0.18 -0.26 0 -0.26 l-4.6 0 c-0.08 0 -0.16 0.06 -0.16 0.16 z M274.09999999999997 6.92 c0.02 -0.06 0.06 -0.12 0.14 -0.12 l2.48 0 c0.08 0 0.12 0.06 0.14 0.12 l3.46 12.86 c0.02 0.12 -0.06 0.22 -0.18 0.22 l-2.28 0 c-0.06 0 -0.12 -0.04 -0.14 -0.12 l-0.78 -2.8 l-2.92 0 l-0.76 2.8 c-0.02 0.08 -0.06 0.12 -0.14 0.12 l-2.3 0 c-0.12 0 -0.2 -0.1 -0.18 -0.22 z M274.65999999999997 14.6 l1.66 0 l-0.86 -3.02 z M277.73999999999995 15.780000000000001 l0.92 3 c0.04 0.12 0.26 0.1 0.2 -0.06 l-3.2 -10.64 c-0.06 -0.26 -0.4 -0.28 -0.46 0 l-3.1 10.64 c-0.06 0.14 0.16 0.2 0.22 0.08 l0.88 -3.02 l4.54 0 z M273.26 15.52 l2.18 -7.36 l2.22 7.36 l-4.4 0 z"></path></g></svg>